<svg xmlns="http://www.w3.org/2000/svg" xmlns:xlink="http://www.w3.org/1999/xlink" data-name="Layer 1" viewBox="0 0 635.4 597" id="authentication"><defs><linearGradient id="a" x1="95.1" x2="729.02" y1="205.4" y2="205.4" gradientUnits="userSpaceOnUse"><stop offset="0" stop-color="#68e1fd"></stop><stop offset="1" stop-color="#69b9eb"></stop></linearGradient><linearGradient id="d" x1="4.71" x2="969.31" y1="120.92" y2="317.8" gradientUnits="userSpaceOnUse"><stop offset="0" stop-color="#fff" stop-opacity="0"></stop><stop offset="1" stop-color="#fff"></stop></linearGradient><linearGradient id="e" x1="40.96" x2="1173.8" y1="56.9" y2="33.99" gradientUnits="userSpaceOnUse"><stop offset=".02" stop-opacity="0"></stop><stop offset=".99" stop-color="#3f3d56"></stop></linearGradient><linearGradient id="f" x1="313.9" x2="117.26" y1="169.99" y2="244.19" gradientUnits="userSpaceOnUse"><stop offset="0" stop-color="#68e1fd"></stop><stop offset=".01" stop-color="#67ddf9"></stop><stop offset=".12" stop-color="#5cb3ce"></stop><stop offset=".24" stop-color="#538ea9"></stop><stop offset=".37" stop-color="#4c718b"></stop><stop offset=".5" stop-color="#465a73"></stop><stop offset=".63" stop-color="#424a63"></stop><stop offset=".79" stop-color="#404059"></stop><stop offset=".99" stop-color="#3f3d56"></stop></linearGradient><linearGradient id="g" x1="433.19" x2="451.34" y1="169.79" y2="169.79" xlink:href="#a"></linearGradient><linearGradient id="b" x1="299.94" x2="402.51" y1="170.35" y2="170.68" gradientUnits="userSpaceOnUse"><stop offset="0" stop-opacity="0"></stop><stop offset=".02" stop-color="#030304" stop-opacity=".04"></stop><stop offset=".18" stop-color="#181821" stop-opacity=".39"></stop><stop offset=".35" stop-color="#292839" stop-opacity=".66"></stop><stop offset=".53" stop-color="#363449" stop-opacity=".85"></stop><stop offset=".73" stop-color="#3d3b53" stop-opacity=".96"></stop><stop offset=".99" stop-color="#3f3d56"></stop></linearGradient><linearGradient id="h" x1="447.14" x2="415.92" y1="169.19" y2="170.22" xlink:href="#a"></linearGradient><linearGradient id="i" x1="332.98" x2="366.51" y1="248.71" y2="159.01" xlink:href="#b"></linearGradient><linearGradient id="j" x1="383.62" x2="358.16" y1="240.51" y2="151.74" xlink:href="#b"></linearGradient><linearGradient id="k" x1="371.63" x2="244.49" y1="170.23" y2="351.29" xlink:href="#b"></linearGradient><linearGradient id="l" x1="385.52" x2="258.38" y1="179.98" y2="361.05" xlink:href="#b"></linearGradient><linearGradient id="m" x1="520.26" x2="770.91" y1="273.9" y2="509.89" xlink:href="#b"></linearGradient><linearGradient id="n" x1="643.36" x2="429.63" y1="334.68" y2="397.79" xlink:href="#b"></linearGradient><linearGradient id="c" x1="477.51" x2="507.97" y1="313.17" y2="313.17" gradientUnits="userSpaceOnUse"><stop offset="0" stop-color="#ecc4d7"></stop><stop offset=".42" stop-color="#efd4d1"></stop><stop offset="1" stop-color="#f2eac9"></stop></linearGradient><linearGradient id="o" x1="463.69" x2="521.1" y1="408.74" y2="408.74" xlink:href="#a"></linearGradient><linearGradient id="p" x1="486.41" x2="513.62" y1="276.32" y2="275.83" xlink:href="#c"></linearGradient><linearGradient id="q" x1="583.1" x2="577.49" y1="271.91" y2="274.87" xlink:href="#c"></linearGradient><linearGradient id="r" x1="595.75" x2="525" y1="333.25" y2="305.55" gradientUnits="userSpaceOnUse"><stop offset="0" stop-color="#fff" stop-opacity="0"></stop><stop offset="1" stop-color="#fff"></stop></linearGradient><linearGradient id="s" x1="551.28" x2="587" y1="581.96" y2="581.96" xlink:href="#b"></linearGradient><linearGradient id="t" x1="588.07" x2="608.85" y1="584.48" y2="584.48" xlink:href="#b"></linearGradient></defs><path fill="#1d2741" d="M372.34 589.54c6.45 2.66 13.58 3.05 20.54 3.38q88.11 4.25 176.34 4.07c5.88 0 11.89-.06 17.4-2.1s10.5-6.52 11.47-12.32c-36.83-2.86-73.92-2.58-110.62-3.94-19.24-.71-39.22 1.7-58.36 3.53q-14.55 1.4-29.05 3.28c-6.08.8-22.31 6.33-27.72 4.1Z" opacity=".18"></path><path fill="#68e1fd" d="m487.37 571.45 4.53 11.13-18.3 8.66-16.9 1.23s-2.89-11.13 5-12.12a27.15 27.15 0 0 0 12.78-4.94ZM501.9 576.48a13.73 13.73 0 0 0-8.42 11.3l-.49 4.69h20.78v-16Z"></path><path fill="url(#a)" d="M729 66.46v277.88a30.78 30.78 0 0 1-30.79 30.79H125.89a30.79 30.79 0 0 1-30.79-30.79V66.46a30.83 30.83 0 0 1 30.79-30.79h572.34A30.83 30.83 0 0 1 729 66.46Z" opacity=".22" transform="translate(-95.1)" style="isolation:isolate"></path><path fill="#68e1fd" d="M635.4 65.43V343.3a30.8 30.8 0 0 1-24.33 30.12 31.16 31.16 0 0 1-6.45.67H32.28a30.78 30.78 0 0 1-30.8-30.79V65.43a30.83 30.83 0 0 1 30.8-30.8h572.34a30.78 30.78 0 0 1 30.52 26.83 28.88 28.88 0 0 1 .26 3.97Z"></path><path fill="url(#d)" d="M730.5 65.43V343.3a30.8 30.8 0 0 1-24.33 30.12 31.16 31.16 0 0 1-6.45.67H127.38a30.78 30.78 0 0 1-30.8-30.79V65.43a30.83 30.83 0 0 1 30.8-30.8h572.34a30.78 30.78 0 0 1 30.52 26.83 28.88 28.88 0 0 1 .26 3.97Z" transform="translate(-95.1)" style="isolation:isolate"></path><path fill="url(#e)" d="M728.76 62.5H95.36a30.79 30.79 0 0 1 30.53-26.83h572.34a30.78 30.78 0 0 1 30.53 26.83Z" transform="translate(-95.1)" style="isolation:isolate"></path><rect width="230.1" height="28.87" x="191.52" y="279.01" fill="#fff" stroke="#68e1fd" stroke-miterlimit="10" stroke-width=".88" rx="7.92"></rect><circle cx="210.28" cy="293.83" r="6.29" fill="#68e1fd"></circle><circle cx="229.85" cy="293.83" r="6.29" fill="#68e1fd"></circle><circle cx="249.43" cy="293.83" r="6.29" fill="#68e1fd"></circle><circle cx="269" cy="293.83" r="6.29" fill="#68e1fd"></circle><path fill="#68e1fd" d="M437.15 292.11v-3.32h2.62v-2.14h-2.62v-1.6h2.62v-2.14h-5.25v9.2a6.57 6.57 0 1 0 2.63 0Zm-1.31 11a4.57 4.57 0 1 1 4.56-4.57 4.58 4.58 0 0 1-4.56 4.58Z"></path><rect width="89.14" height="89.14" x="268.26" y="125.83" fill="url(#f)" rx="11.76" style="isolation:isolate"></rect><rect width="83.67" height="89.14" x="273.72" y="125.83" fill="#68e1fd" rx="11.39"></rect><path fill="#fff" d="m360.84 170.69-4.6 4.37-2 1.88a15.51 15.51 0 0 0-13-5.51 5.7 5.7 0 0 1-3.13-.51c-3.31-1.88 1.88-8.29 1.88-8.29a26.07 26.07 0 0 1 3.42.15 1.53 1.53 0 0 1 .3 0l.91.11c4.34.62 11.41 2.69 16.22 7.8Z"></path><path fill="url(#g)" d="m451.16 174.65.18.41-2 1.88a15.51 15.51 0 0 0-13-5.51 5.7 5.7 0 0 1-3.13-.51l1.88-8.29s1.85 0 3.42.15a1.53 1.53 0 0 1 .3 0 7.56 7.56 0 0 1 .91.11s1.09 4.66.28 6.62c0 .03 7.67 1.31 11.16 5.14Z" opacity=".39" transform="translate(-95.1)"></path><rect width="12.12" height="51.56" x="306.77" y="144.62" fill="url(#b)" rx="4.51"></rect><path fill="#fff" d="M341.22 169.7a20.49 20.49 0 0 1-20.47 20.3h-4.41a3.55 3.55 0 0 1-3.19-2 3.55 3.55 0 0 1 3.19-5.13h1.64a13.35 13.35 0 0 0 13.35-13.64 13.53 13.53 0 0 0-13.62-13.07h-2a2.92 2.92 0 0 1-2.92-2.92V152a2.92 2.92 0 0 1 2.92-2.92h4.69c11.33-.01 20.9 9.27 20.82 20.62Z"></path><path fill="url(#h)" d="M430.86 170.52a17.81 17.81 0 0 1-17.79 17.66h-3.84a3.19 3.19 0 0 1-1-.16 3.55 3.55 0 0 1 3.19-5.13h1.64a13.35 13.35 0 0 0 13.35-13.64 13.53 13.53 0 0 0-13.62-13.07h-2a2.92 2.92 0 0 1-2.92-2.92v-.55a2.63 2.63 0 0 1 .8-.13h4.07a18.08 18.08 0 0 1 18.12 17.94Z" opacity=".39" transform="translate(-95.1)"></path><path fill="#fff" d="M330.69 165.47s1.34 3.59-.33 9.07c0 0-6.33 6.51-.93 16.86l4.46 4.77-5.19 5.11a23 23 0 0 1-8.67-21.54c1.15-8.82 10.66-14.27 10.66-14.27Z"></path><path fill="#68e1fd" d="m324.27 205.4 41.1-39 34.48 29.77-42.46 40.73-33.12-31.5zM324.27 205.4l2.73 15.46 30.39 29.16V236.9l-33.12-31.5z"></path><path fill="#68e1fd" d="M399.85 196.17v14.19l-42.46 39.66V236.9l42.46-40.73z"></path><path fill="url(#i)" d="m324.27 205.4 2.73 15.46 30.39 29.16V236.9l-33.12-31.5z"></path><path fill="url(#j)" d="M399.85 196.17v14.19l-42.46 39.66V236.9l42.46-40.73z"></path><path fill="url(#k)" d="m331.85 212.61 41.49-39.33 3.83 3.31-41.41 39.74-3.91-3.72z"></path><path fill="url(#l)" d="m344.1 224 42.48-39.33 3.83 3.3-42.4 39.74-3.91-3.71z"></path><path fill="url(#m)" d="M557.7 262.72a76.31 76.31 0 0 0 1 18.48c.68 3.77 1.59 7.92-.35 11.24-1 1.8-2.8 3.06-4.41 4.39-10.22 8.4-16.13 20.87-24.86 30.81a4.4 4.4 0 0 1-2.38 1.69 4.31 4.31 0 0 1-2.78-.79 36.94 36.94 0 0 1-13-12.64c-1.57-2.56-3-5.48-5.7-6.79-5-2.46-11.06 2.77-11.61 8.34s2.44 10.81 5.33 15.6l13.37 22.18c4.07 6.76 8.36 13.75 15 18a36.23 36.23 0 0 0 15.11 5.1c7.58 1 15.27.5 22.9-.09q20.93-1.62 41.75-4.16c4.76-.58 10.17-1.62 12.58-5.75 1.62-2.78 1.4-6.21 1.12-9.41q-1.47-17.39-3-34.77c-.55-6.57-1.37-13.71-6-18.39-2.77-2.78-6.65-4.36-9.11-7.43a18.63 18.63 0 0 1-3.3-8.31c-2.37-12.5-.1-25.93-5-37.7-1-2.38-2.34-4.74-4.55-6.07a12.2 12.2 0 0 0-6.59-1.33c-10.95.31-24.72 5.53-25.52 17.8Z" opacity=".21" transform="translate(-95.1)"></path><path fill="#68e1fd" d="M611.37 439.22c-5.93 68.33-193.92 46.44-329.11 18.74S35.53 485.66 9.81 439.22c-11.39-20.56-3.78-46.24 8.25-68.48a30.59 30.59 0 0 0 15 3.87H600.3c7.81 18.39 13.18 40.39 11.07 64.61Z" opacity=".18"></path><path fill="#3f3d56" d="m463.69 410.83-12.31 89.66a23.88 23.88 0 0 0 1.15 11.21l22 64.78 12.86-4-9.7-64.45a9.23 9.23 0 0 1 .26-4l16.69-57.64 7.26 130h11.87l10.21-128.29c3.46-21.44-2.88-37.27-2.88-37.27Z"></path><path fill="#68e1fd" d="m526.78 387.09-12.18-78.46-1.7-9.56s22.74 13 29.26 35.74c8.53 29.85-15.38 52.28-15.38 52.28Z"></path><path fill="url(#n)" d="m621.88 387.09-12.18-78.46-1.7-9.56s22.74 13 29.26 35.74c8.53 29.85-15.38 52.28-15.38 52.28Z" transform="translate(-95.1)"></path><path fill="#68e1fd" d="M539.28 368.83c9.23-18.25-9-50-9-50l-15.7-10.19 1.77-11.33s25.32 2.59 27.79 38.34c.82 11.51-.04 25.73-4.86 33.18Z"></path><path fill="url(#c)" d="M503.93 307.57c-.85-2.88-2.33-6.31-5.33-6.57a11.91 11.91 0 0 1-.34 8c-6.54-2.42-8.06-12-14.59-14.48-1 1.06-.44 2.79.18 4.11q1.71 3.69 3.44 7.38-2.3-3.62-4.89-7c-.51-.69-1.39-1.44-2.11-1s-.46 1.37-.2 2.09c1.14 3.2 2.44 6.35 3.87 9.43a53.92 53.92 0 0 0-5.49-7.62c-1.34.33-1.06 2.31-.48 3.56l4.29 9.14-3.44-5c-1.11.11-.94 1.81-.4 2.79a42.79 42.79 0 0 0 20.5 18.43c1.76.75 3.8 1.37 5.53.56 7.44-3.39.9-18.88-.54-23.82Z" transform="translate(-95.1)"></path><path fill="#68e1fd" d="M526.78 331.84v61.52c0 7.54-1.23 13.67-8.78 13.67h-52.72c-7.52 0-7.81-6.07-7.86-13.58l-.39-41.81s-11.38 20.27-20.46 18.3-36-39.08-36-39.08l13.4-11.26 22.58 22.64s3.63-8.25 8.91-26.72S467.9 297 467.9 297h45.84c16.55 0 13.04 34.84 13.04 34.84Z"></path><path fill="#3f3d56" d="M526.78 338.77s7.92 11.13 0 22.26Z"></path><path fill="url(#o)" d="M463.69 406.64h57.41v4.19h-57.41z"></path><path fill="url(#p)" d="M483.24 255.16h16.57v42.13h-16.57z"></path><path fill="url(#q)" d="M594.92 250.54v46.76h-8.74v-2.85a6.31 6.31 0 0 0-6.32-6.31h-.5a15.7 15.7 0 0 1-15.7-15.7v-21.9Z" transform="translate(-95.1)"></path><path fill="#3f3d56" d="M468.56 255.16s-14.5-7.91-9.31-16.57 13.65-3.21 13.65-3.21h27.95s3.21-.5 4.45 4.94-5.44 39.21-5.44 39.21h-13.89l-1.78-8.78s2.77-3 2.52-6.19a2.6 2.6 0 0 0-4.94-1.23c-1.25 2.22-.75-7.18-5.2-8.17a18.1 18.1 0 0 0-8.01 0Z"></path><path fill="url(#r)" d="M591.21 297.21s-6.43 8.42-15.34 8.42-34.87 25.47-36.61 33.14-7.59 3.47-7.59 3.47 3.63-8.25 8.91-26.72S563 297 563 297h23.3Z" transform="translate(-95.1)" style="isolation:isolate"></path><path fill="url(#s)" d="m582.47 571.45 4.53 11.13-18.3 8.66-16.9 1.23s-2.89-11.13 5-12.12a27.15 27.15 0 0 0 12.78-4.94Z" transform="translate(-95.1)"></path><path fill="url(#t)" d="M597 576.48a13.73 13.73 0 0 0-8.42 11.3l-.49 4.69h20.78v-16Z" transform="translate(-95.1)"></path><path fill="#68e1fd" d="M120.13 36.19s128.36-81.43 292.74 0Z" opacity=".18"></path></svg>